#!OML:ASF E:/inclinewalkrobotboard/Project1/Captureday1/Session1/subject1.ASF
:FULLY-SPECIFIED
:DEGREES
38
root 0 0 0 1.975818488059239 -10.750775304926112 0.9058936561422465
lowerback -0.27334563509924137 -1.783339412908894 -2.682534957503478
upperback -0.26447730062414126 -2.3339615849700954 1.6840318414961994
thorax 0.01827722451275693 -1.1753492269265244 3.1696198043418584
lowerneck -25.25976770188076 -1.7870528561334251 -7.927802836748359
upperneck 27.3922514665063 0.03167051736997972 2.203539138759349
head 13.400632911293696 -0.6058832435643936 2.302148398634421
rclavicle -1.337085917286707E-15 2.1940458396737993E-16
rhumerus -32.85595691025864 -2.7044418166046804 -79.50905623634911
rradius 29.72476775666457
rwrist 19.437282439076323
rhand -17.964726831421324 9.293095978199212
rfingers 7.1250199999999335
rthumb 8.300052075235124 -20.517288529219996
lclavicle -2.91401325049265E-15 2.6018386524537467E-15
lhumerus -23.01417306296712 -6.911763783564093 91.66763910221775
lradius 63.8691101728566
lwrist 4.236193596087159
lhand -27.298190158131565 22.640706940682467
lfingers 7.125019999999992
lthumb -0.7387364392638496 52.72988938528655
rfemur -32.62861349718618 2.1529094943925955 17.231588108143182
rtibia 40.31457024397949
rfoot -4.291558688240526 -11.368268612242403
rtoes -3.2079559296889855
lfemur 7.471030045988412 -4.246018208745522 -30.131922251095222
ltibia 15.452098187053304
lfoot -21.74062674638574 0.038828322103784174
ltoes -1.5458216071832442
39
root 0 0 0 1.995659178240599 -10.780934272386459 0.9303030777593081
lowerback -0.2565018884352872 -1.808413626342912 -2.683002427534993
upperback -0.23551908263698407 -2.3665671730528137 1.7121707538505202
thorax 0.04301466888248595 -1.1935640867493609 3.2010028638758476
lowerneck -25.52067120034594 -1.7889874591364752 -7.9127886718733205
upperneck 26.953623334742097 0.05018021160699182 2.2105190276350593
head 13.285212352176327 -0.5820227958934463 2.2976117705991967
rclavicle 4.555507469690404E-16 -8.344923399052488E-16
rhumerus -33.37347677979324 -2.583781100226889 -78.77923095450083
rradius 29.231728526507126
rwrist 19.779541319045244
rhand -17.936650631859823 9.207199153274047
rfingers 7.125019999999941
rthumb 8.32660985632595 -20.625719869785403
lclavicle -2.40392300612366E-16 1.8377056419369936E-15
lhumerus -22.811258500013892 -7.778256901952615 91.38537154501716
lradius 64.47933246122497
lwrist 4.5426006317341585
lhand -27.21498870835309 23.197880260923128
lfingers 7.125019999999987
lthumb -0.6548298853624246 53.30133158066215
rfemur -33.20911971206178 3.2794633395522332 17.031295057199966
rtibia 32.93832268518506
rfoot -4.667920434532009 -12.118823549447699
rtoes -4.2633683619883245
lfemur 13.678889045441045 -4.775982205021725 -30.301053738135373
ltibia 14.1807086637829
lfoot -18.638463801838654 -2.4885116668809157
ltoes -6.025621563243677
40
root 0 0 0 2.01290029096746 -10.787326903163908 0.9646732604001756
lowerback -0.18833216780376416 -1.8335031856644024 -2.6768397442843956
upperback -0.2012130905510921 -2.3989217637158915 1.7721161509727206
thorax 0.045613464964117334 -1.2118853500803188 3.2629071964237886
lowerneck -25.944474377497254 -1.7868685578573387 -7.849105840243104
upperneck 26.047352882756215 0.08015469455465574 2.228616244765132
head 13.031420701315513 -0.5375829454545379 2.2854728220210077
rclavicle 2.3373589366618925E-15 -1.6327640067070222E-15
rhumerus -33.8402321001161 -2.8016329630094026 -78.24486958282345
rradius 28.83853877525031
rwrist 20.144283203894304
rhand -17.849248647252352 9.085279352641091
rfingers 7.125019999999947
rthumb 8.410035353612594 -20.752764088275228
lclavicle 1.6365343317551327E-15 1.2980224611196828E-15
lhumerus -22.66753323946979 -8.431580084594891 91.2413226736883
lradius 64.94955507718055
lwrist 4.683364979741981
lhand -27.225479477296638 23.54841271985854
lfingers 7.125019999999984
lthumb -0.6610863952882209 53.65757764050853
rfemur -33.97977450576788 3.8785469877645182 17.357592751214533
rtibia 28.81108645418625
rfoot -4.833636502590473 -12.09002452909496
rtoes -4.076253946781853
lfemur 19.851293343766912 -5.021731401431881 -29.676849820581122
ltibia 16.82422878384612
lfoot -12.982226925107657 -6.3071560784382985
ltoes -11.096017460261438
41
root 0 0 0 2.018213312100158 -10.739540903158304 1.0057254654680348
lowerback -0.06017258499311939 -1.845472935073492 -2.6666856788692725
upperback -0.1771412898039083 -2.412556110313408 1.8653223225428408
thorax 0.0024701132346116594 -1.220492403615514 3.357937396221535
lowerneck -26.502740715546587 -1.7885850884265686 -7.727564579437515
upperneck 24.618428875342726 0.10218549349534445 2.282249947623592
head 12.617491594922663 -0.4786707554041044 2.2708960281689627
rclavicle 3.777855034699627E-15 -2.088467780712044E-15
rhumerus -34.19868570888505 -3.3308367076849366 -77.95963031672059
rradius 28.58240381912585
rwrist 20.473998887983424
rhand -17.71720463520917 8.960453907885642
rfingers 7.125019999999953
rthumb 8.536785916610036 -20.86465078962174
lclavicle 1.821921876249042E-15 7.917635175390906E-16
lhumerus -22.720321289701367 -8.741655836604792 91.24073318376706
lradius 65.09483050972176
lwrist 4.73208040414556
lhand -27.22518512686942 23.603235892721173
lfingers 7.125019999999983
lthumb -0.6604155866842563 53.713486927441494
rfemur -35.556585739595036 4.165749183179979 18.225135738813993
rtibia 26.544454265433924
rfoot -4.8150382182319476 -11.708010418706214
rtoes -1.9902767175922875
lfemur 20.659522682531044 -4.070370541919294 -27.17327081438328
ltibia 27.258221009978065
lfoot -5.542172905002333 -11.446401100331224
ltoes -15.39797659795256
